<svg xmlns="http://www.w3.org/2000/svg" id="Layer_1" viewBox="0 0 160 160"><style>.abc,.abl{fill:none;stroke:#000;stroke-linejoin:round}.abl{stroke-opacity:.15;stroke-width:4}.abc{stroke-width:5;stroke-linecap:round}.cls-3{fill:#eecb72}.cls-10{fill:#27273d}</style><defs><clipPath id="clippath"><path d="M63 29.27c2.76 0 5 4.47 5 10s-2.24 3.9-5 3.9-5 1.62-5-3.9 2.24-10 5-10" class="cls-3"/></clipPath><clipPath id="clippath-1"><path d="M97 29.27c2.76 0 5 4.47 5 10s-2.24 4-5 4-5 1.52-5-4 2.24-10 5-10" class="cls-3"/></clipPath></defs><g id="Avatars"><g id="Artboard"><g id="Animals"><g fill="#fff"><path id="ab0" d="M107.21 39.54C104.36 1.8 80.01 4.3 80.01 4.3S55.63 1.8 52.8 39.54c0 0-20.44 20.02 9.56 36.21v71.97a8.6 8.6 0 0 0 8.6 8.55h17.75a8.6 8.6 0 0 0 8.61-8.55V75.75h.3c30.02-16.16 9.6-36.21 9.6-36.21"/></g><mask id="am0" width="240" height="240" x="-40" y="-40" maskUnits="userSpaceOnUse"><use fill="#fff" href="#ab0"/></mask><use class="abl" href="#ab0" mask="url(#am0)"/><g fill="#c4c4c4"><path id="ab1" d="M72.66 75.75v80.52h-1.82a8.57 8.57 0 0 1-8.56-8.55V75.75c-29.86-16.19-9.51-36.21-9.51-36.21C55.57 1.8 79.79 4.3 79.79 4.3s2.12-.22 5.21.46c-7.3 1.6-19.86 8.22-21.84 34.78-.04 0-20.35 20.06 9.5 36.21"/></g><mask id="am1" width="240" height="240" x="-40" y="-40" maskUnits="userSpaceOnUse"><use fill="#fff" href="#ab1"/><polyline points="84.5,4.7 77.0,7.8 71.5,13.0 66.8,21.0 64.5,29.3" class="abc"/><polyline points="59.8,43.3 57.8,47.3" class="abc"/><polyline points="72.5,92.7 72.3,156.2" class="abc"/></mask><use class="abl" href="#ab1" mask="url(#am1)"/><g fill="#f1aa9f"><path id="ab2" d="M99.16 65.66s-3.4 12-5.51 19.02a14.2 14.2 0 0 1-6.61 8.28 13.7 13.7 0 0 1-6.77 1.77h-.7q-2.57-.01-4.87-.9a14 14 0 0 1-6.42-5 14 14 0 0 1-2.04-4.16c-1.87-6.2-4.73-14.62-5.38-18.28l-.01-.1-.12-.66c-7.93-10.45 3.59-15.45 3.59-15.45 6.34-14.76 13.72-15.85 15.3-15.9q.31-.02.32 0h.02l.24-.02.13.01.24.01c.52.05 1.35.2 2.38.6l.46.2c3.13 1.38 7.88 5.12 12.16 15.1 0 .03 11.5 5.03 3.59 15.48"/></g><mask id="am2" width="240" height="240" x="-40" y="-40" maskUnits="userSpaceOnUse"><use fill="#fff" href="#ab2"/></mask><use class="abl" href="#ab2" mask="url(#am2)"/><g fill="#d8968f"><path id="ab3" d="M87.04 92.96a13.7 13.7 0 0 1-6.77 1.77h-.7q-2.57-.01-4.87-.9a14 14 0 0 1-6.42-5 14 14 0 0 1-2.04-4.16c-1.87-6.2-4.73-14.62-5.38-18.28l-.01-.1-.05-.66c-7.96-10.45 3.6-15.45 3.6-15.45 6.18-14.37 13.38-15.78 15.23-15.9h.45l.12-.02.13.01.24.01c.49.03 1.34.16 2.43.58l-.05.02-.48.2c-3.14 1.36-7.93 5.1-12.23 15.1 0 0-11.55 5-3.6 15.45 0 0-2.96 23.56 20.4 27.33"/></g><mask id="am3" width="240" height="240" x="-40" y="-40" maskUnits="userSpaceOnUse"><use fill="#fff" href="#ab3"/><polyline points="76.2,39.7 73.2,43.7 70.2,50.0 66.7,52.2 64.5,55.0" class="abc"/><polyline points="63.8,58.0 64.2,61.7 66.5,65.3 66.5,72.3 68.2,78.7 70.8,83.7 74.3,87.5" class="abc"/><polyline points="74.7,87.5 77.3,89.5" class="abc"/><polyline points="77.5,89.7 81.3,91.5 86.5,92.7" class="abc"/></mask><use class="abl" href="#ab3" mask="url(#am3)"/><g fill="#eecb72"><path id="ab4" d="M63 29.27c2.76 0 5 4.47 5 10s-2.24 3.9-5 3.9-5 1.62-5-3.9 2.24-10 5-10"/></g><mask id="am4" width="240" height="240" x="-40" y="-40" maskUnits="userSpaceOnUse"><use fill="#fff" href="#ab4"/><polyline points="60.3,43.2 59.3,43.2 57.8,41.0 58.5,33.7 61.3,29.5 64.3,29.5" class="abc"/></mask><use class="abl" href="#ab4" mask="url(#am4)"/><mask id="ao4" width="240" height="240" x="-40" y="-40" maskUnits="userSpaceOnUse"><polyline points="60.3,43.2 59.3,43.2 57.8,41.0 58.5,33.7 61.3,29.5 64.3,29.5" style="fill:none;stroke-width:5;stroke-linecap:round;stroke-linejoin:round;stroke:#fff"/><use href="#ab4"/></mask><use class="abl" href="#ab4" mask="url(#ao4)"/><ellipse cx="63" cy="38.27" class="cls-10" rx="4" ry="6" style="clip-path:url(#clippath)"/><g fill="#eecb72"><path id="ab6" d="M97 29.27c2.76 0 5 4.47 5 10s-2.24 4-5 4-5 1.52-5-4 2.24-10 5-10"/></g><mask id="am6" width="240" height="240" x="-40" y="-40" maskUnits="userSpaceOnUse"><use fill="#fff" href="#ab6"/></mask><use class="abl" href="#ab6" mask="url(#am6)"/><ellipse cx="97" cy="38.27" class="cls-10" rx="4" ry="6" style="clip-path:url(#clippath-1)"/><g fill="#ed8682"><path id="ab8" d="M75.76 31.05a6.5 6.5 0 0 0-3.76 6c.26 9.52 2.67 2.02 6.04 2.03s7.7 7.5 7.96-2.03a6.5 6.5 0 0 0-3.76-6 7.1 7.1 0 0 0-6.48 0"/></g><mask id="am8" width="240" height="240" x="-40" y="-40" maskUnits="userSpaceOnUse"><use fill="#fff" href="#ab8"/><polyline points="84.0,41.8 79.3,39.2 77.7,38.8 76.3,39.5" class="abc"/><polyline points="76.0,39.5 73.0,41.8 71.8,38.3" class="abc"/><polyline points="85.8,36.0 85.5,40.3 84.0,41.8" class="abc"/></mask><use class="abl" href="#ab8" mask="url(#am8)"/><g fill="#f1aa9f"><path id="ab9" d="M94.63 50.18s3.84-3.74 7.92-1.61c5.04 2.64-.18 12.87-4.33 17.1-4.16 4.22-3.6-15.5-3.6-15.5"/></g><mask id="am9" width="240" height="240" x="-40" y="-40" maskUnits="userSpaceOnUse"><use fill="#fff" href="#ab9"/><polyline points="97.0,66.2 95.8,65.3 95.2,63.3 94.5,58.3" class="abc"/><polyline points="94.5,55.3 94.5,50.0 95.2,49.3" class="abc"/><polyline points="101.0,61.8 97.0,66.2" class="abc"/></mask><use class="abl" href="#ab9" mask="url(#am9)"/><g fill="#d8968f"><path id="ab10" d="M64.92 50.52s-4.35-4.76-8.77-1.95c-4.8 3.05.18 12.87 4.33 17.1 2.28 2.3.66-3.9 1.2-8.67.46-3.96 3.24-6.48 3.24-6.48"/></g><mask id="am10" width="240" height="240" x="-40" y="-40" maskUnits="userSpaceOnUse"><use fill="#fff" href="#ab10"/><polyline points="64.5,50.0 62.2,54.0" class="abc"/><polyline points="61.5,57.0 61.3,65.8" class="abc"/></mask><use class="abl" href="#ab10" mask="url(#am10)"/><path d="M59.14 54.44s18.97 11.72 41.6 0" style="fill:none;stroke:#d8968f;stroke-linecap:round;stroke-miterlimit:10;stroke-width:2.741183px"/></g></g></g></svg>