<?xml version="1.0" encoding="UTF-8"?><svg id="Layer_1" xmlns="http://www.w3.org/2000/svg" viewBox="0 0 160 160"><style>.abl{fill:none;stroke:#000;stroke-opacity:0.15;stroke-width:4;stroke-linejoin:round}.abc,.abk{fill:none;stroke:#000;stroke-width:5;stroke-linecap:round;stroke-linejoin:round}.abk{stroke:#fff}</style><defs><style>.cls-1{fill:#a583bb;}.cls-2{fill:#f4e6f4;}.cls-3{fill:#c2aacf;}.cls-4{fill:#f4829b;}.cls-5{fill:#fff;}.cls-6{fill:#dd5273;}.cls-7{fill:#f0a6b3;}.cls-8{fill:#decee5;}.cls-9{fill:#ee6781;}.cls-10{stroke:#9175a7;stroke-width:3.5px;}.cls-10,.cls-11{fill:none;stroke-linecap:round;stroke-miterlimit:10;}.cls-12{fill:#9175a7;}.cls-11{stroke:#2e3140;stroke-width:2.4057px;}</style></defs><g id="Avatars"><g id="Artboard"><g id="Animals"><g id="Animals-avatar_9"><g fill="#fff"><path d="M132.658381,80.57808c2.293081,2.292713,3.710131,5.463886,3.710131,8.967167,0,6.993427-5.655098,12.663879-12.62888,12.663879-.997713,0-1.968281-.118816-2.898289-.339153.429554,1.030907.66972,2.160446.66972,3.347317,0,4.792309-3.875883,8.678932-8.654947,8.678932-1.968282,0-3.78135-.661324-5.235445-1.77037-2.076549-1.583988-3.419503-4.090309-3.419503-6.908562,0-4.792309,3.875884-8.678936,8.654947-8.678936.12168,0,.243361.006725.361848.01025-1.329222-2.004482-2.107209-4.412487-2.107209-7.003357,0-4.008644,1.860335-7.580135,4.758625-9.903275-5.049572-3.11673-8.414781-8.712881-8.414781-15.095581,0-9.218245,7.014659-16.788133,15.984188-17.639373.554747-.054123,1.119394-.081345,1.687555-.081345,9.760927,0,17.671743,7.932738,17.671743,17.720718,0,7.084702-4.146393,13.196465-10.139704,16.031689Z" id="ab0"/></g><mask id="am0" maskUnits="userSpaceOnUse" x="-40" y="-40" width="240" height="240"><use href="#ab0" fill="#fff"/></mask><use class="abl" href="#ab0" mask="url(#am0)"/><g fill="#f4e6f4"><path d="M124.351866,79.373922c2.293083,2.292709,3.710131,5.463882,3.710131,8.967163,0,6.993427-5.655098,12.663879-12.628878,12.663879-.997715,0-1.968283-.122017-2.89829-.339153.429553,1.027702.66972,2.160446.66972,3.347317,0,3.706963-2.320228,6.871086-5.583878,8.112404-2.076549-1.583988-3.419503-4.090309-3.419503-6.908562,0-4.792309,3.875884-8.678936,8.654947-8.678936.12168,0,.243361.006725.361848.01025-1.329222-2.004482-2.107209-4.412487-2.107209-7.003357,0-4.008644,1.860335-7.580135,4.758625-9.903275-5.049572-3.11673-8.414781-8.712881-8.414781-15.095581,0-9.218245,7.014659-16.788133,15.984188-17.639373,6.480032,2.625137,11.052782,8.994387,11.052782,16.435213,0,7.08534-4.146389,13.196783-10.139702,16.032011Z" id="ab1"/></g><mask id="am1" maskUnits="userSpaceOnUse" x="-40" y="-40" width="240" height="240"><use href="#ab1" fill="#fff"/><polyline class="abc" points="131.0,52.8 134.2,60.0 134.2,66.3 131.5,73.0 128.0,76.8 124.2,79.3 126.2,81.7 127.8,86.0 127.2,92.7 125.5,95.7 121.7,99.2 118.3,100.5 112.5,101.0"/><polyline class="abc" points="112.5,101.3 113.2,103.7 112.5,107.0 110.5,110.0 107.7,111.8"/></mask><use class="abl" href="#ab1" mask="url(#am1)"/><g fill="#fff"><path d="M27.274374,80.57808c-2.293082,2.292713-3.71013,5.463886-3.71013,8.967167,0,6.993427,5.655098,12.663879,12.628879,12.663879.997713,0,1.968281-.118816,2.898289-.339153-.429554,1.030907-.66972,2.160446-.66972,3.347317,0,4.792309,3.875883,8.678932,8.654947,8.678932,1.968283,0,3.781349-.661324,5.235443-1.77037,2.07655-1.583988,3.419506-4.090309,3.419506-6.908562,0-4.792309-3.875885-8.678936-8.654949-8.678936-.121681,0-.243361.006725-.361847.01025,1.329222-2.004482,2.107208-4.412487,2.107208-7.003357,0-4.008644-1.860334-7.580135-4.758625-9.903275,5.049572-3.11673,8.41478-8.712881,8.41478-15.095581,0-9.218245-7.014658-16.788133-15.984186-17.639373-.554747-.054123-1.119394-.081345-1.687555-.081345-9.760928,0-17.671741,7.932738-17.671741,17.720718,0,7.084702,4.14639,13.196465,10.139702,16.031689Z" id="ab2"/></g><mask id="am2" maskUnits="userSpaceOnUse" x="-40" y="-40" width="240" height="240"><use href="#ab2" fill="#fff"/></mask><use class="abl" href="#ab2" mask="url(#am2)"/><g fill="#f4e6f4"><path d="M35.580889,79.373922c-2.293081,2.292709-3.710131,5.463882-3.710131,8.967163,0,6.993427,5.655098,12.663879,12.628878,12.663879.997715,0,1.968283-.122017,2.898291-.339153-.429554,1.027702-.669722,2.160446-.669722,3.347317,0,3.706963,2.320229,6.871086,5.583878,8.112404,2.07655-1.583988,3.419506-4.090309,3.419506-6.908562,0-4.792309-3.875885-8.678936-8.654949-8.678936-.121681,0-.243361.006725-.361847.01025,1.329222-2.004482,2.107208-4.412487,2.107208-7.003357,0-4.008644-1.860334-7.580135-4.758625-9.903275,5.049572-3.11673,8.41478-8.712881,8.41478-15.095581,0-9.218245-7.014658-16.788133-15.984186-17.639373-6.480032,2.625137-11.052783,8.994387-11.052783,16.435213,0,7.08534,4.146391,13.196783,10.139703,16.032011Z" id="ab3"/></g><mask id="am3" maskUnits="userSpaceOnUse" x="-40" y="-40" width="240" height="240"><use href="#ab3" fill="#fff"/><polyline class="abc" points="52.3,111.8 48.2,109.0 46.5,105.0 47.0,101.2"/><polyline class="abc" points="47.2,101.0 41.3,100.5 37.3,98.8 32.5,93.0 31.8,85.7 35.2,79.0 32.0,77.2 27.5,72.0 25.2,64.0 26.2,57.3 30.3,50.8"/></mask><use class="abl" href="#ab3" mask="url(#am3)"/><g fill="#c2aacf"><path d="M144.606535,25.547015l.962155,2.617238c3.066768,8.341346.281209,17.619132-6.220887,20.720636l-19.00036,9.063513c-3.414405,1.628672-7.486074-.600966-9.095745-4.978501-.701676-1.90877-.823131-3.932465-.438328-5.741198.386879-1.809779,1.281718-3.405898,2.610969-4.456267l12.275097-9.672183,12.837307-10.115198c2.066955-1.629017,4.982129-.396556,6.069793,2.56196Z" id="ab4"/></g><mask id="am4" maskUnits="userSpaceOnUse" x="-40" y="-40" width="240" height="240"><use href="#ab4" fill="#fff"/></mask><use class="abl" href="#ab4" mask="url(#am4)"/><g fill="#ee6781"><path d="M136.402584,45.47482l-15.310358,9.580552-.665624.415361c-.133418.084954-.268611.158834-.40667.224459-2.230944,1.064253-4.939262-.20874-6.22107-3.013416-1.359973-2.978587-.600062-6.558033,1.698256-7.997212l15.465804-9.676201.508044-.31898c.133417-.084953.26861-.158834.40667-.224458,2.230943-1.064255,4.938469.206282,6.221069,3.013416,1.36211,2.977856.6022,6.557301-1.69612,7.996479Z" id="ab5"/></g><mask id="am5" maskUnits="userSpaceOnUse" x="-40" y="-40" width="240" height="240"><use href="#ab5" fill="#fff"/></mask><use class="abl" href="#ab5" mask="url(#am5)"/><g fill="#f4829b"><path d="M136.402584,45.47482l-15.310358,9.580552c.361334-7.732914,3.954765-15.183027,9.87107-20.046754l.508042-.31898c.133417-.084953.26861-.158834.40667-.224459,2.230943-1.064254,4.938471.206282,6.221071,3.013416,1.361736,2.977601.601825,6.557046-1.696494,7.996224Z" id="ab6"/></g><mask id="am6" maskUnits="userSpaceOnUse" x="-40" y="-40" width="240" height="240"><use href="#ab6" fill="#fff"/><polyline class="abc" points="121.0,54.8 122.2,48.3"/><polyline class="abc" points="126.3,39.5 130.2,35.3"/></mask><use class="abl" href="#ab6" mask="url(#am6)"/><path class="cls-8" d="M143.105207,37.770813l-1.172904.222433c-.968633.183695-1.965316-.522714-2.376433-1.684389l-2.233648-6.308538c-.492819-1.391958.027772-2.913191,1.139369-3.330333l2.102997-.789324c1.175284-.441281,2.484136.54167,2.776941,2.085647l1.303868,6.875369c.266295,1.405906-.423141,2.717294-1.54019,2.929135Z"/><g fill="#a583bb"><path d="M16.783863,21.585613l-1.127642,2.550314c-3.593874,8.128115-1.407943,17.56504,4.882389,21.076208l18.381523,10.260629c3.303206,1.843796,7.509187-.12076,9.395644-4.386335.822368-1.859963,1.073054-3.871741.804765-5.701389-.27029-1.830824-1.061174-3.480926-2.320497-4.614192l-11.631095-10.437754-12.16435-10.916302c-1.957952-1.757459-4.946007-.714042-6.220736,2.168821Z" id="ab8"/></g><mask id="am8" maskUnits="userSpaceOnUse" x="-40" y="-40" width="240" height="240"><use href="#ab8" fill="#fff"/></mask><use class="abl" href="#ab8" mask="url(#am8)"/><g fill="#dd5273"><path d="M23.695977,41.997493l14.666004,10.540515.637683.457098c.12771.093316.257899.175696.391477.250019,2.158277,1.204815,4.942496.107713,6.40113-2.609203,1.54776-2.88547,1.01843-6.506201-1.183097-8.089482l-14.815709-10.645763-.486593-.350832c-.127709-.093316-.257898-.175695-.391475-.250018-2.158279-1.204814-4.94155-.110116-6.401129,2.609203-1.549151,2.884451-1.019818,6.505185,1.181709,8.088464Z" id="ab9"/></g><mask id="am9" maskUnits="userSpaceOnUse" x="-40" y="-40" width="240" height="240"><use href="#ab9" fill="#fff"/></mask><use class="abl" href="#ab9" mask="url(#am9)"/><g fill="#ee6781"><path d="M23.695977,41.997493l14.666004,10.540515c.134176-7.740189-2.975218-15.404951-8.568207-20.637252l-.486593-.350832c-.127709-.093316-.257898-.175695-.391476-.250019-2.158278-1.204814-4.941549-.110116-6.401128,2.609204-1.54946,2.884372-1.020127,6.505105,1.1814,8.088385Z" id="ab10"/></g><mask id="am10" maskUnits="userSpaceOnUse" x="-40" y="-40" width="240" height="240"><use href="#ab10" fill="#fff"/></mask><use class="abl" href="#ab10" mask="url(#am10)"/><path class="cls-3" d="M17.467221,33.872001l1.156268.297022c.954895.245294,1.994734-.395897,2.479334-1.528888l2.632707-6.152698c.58087-1.357574.158679-2.908999-.923951-3.396409l-2.048185-.922261c-1.144641-.515574-2.513703.38162-2.904695,1.903698l-1.741098,6.777857c-.355703,1.385987.248415,2.7388,1.349622,3.021678Z"/><g fill="#c2aacf"><path d="M118.062813,60.473077l-3.115135,32.334637c-.761063,7.875092-5.157845,14.583488-11.428368,18.521042-1.312294.820808-2.357594,1.960281-3.077774,3.279739-.720501,1.31913-1.11269,2.82177-1.11269,4.371811,0,5.362045-2.167889,10.215202-5.672024,13.72905-3.503819,3.513527-8.34388,5.687744-13.690784,5.687744s-11.206899.915832-14.710715-2.598015c-3.503817-3.513527-4.652097-11.456733-4.652097-16.818779,0-3.099754-1.569387-6.006401-4.190463-7.651237-6.270526-3.937546-10.667303-10.645943-11.428364-18.521034l-3.115142-32.334637c-1.393415-14.478449,9.957022-27.013584,24.463162-27.013584h27.266916c14.506462,0,25.856895,12.534816,24.463478,27.013264Z" id="ab12"/></g><mask id="am12" maskUnits="userSpaceOnUse" x="-40" y="-40" width="240" height="240"><use href="#ab12" fill="#fff"/><polyline class="abc" points="42.2,53.3 42.7,50.8"/></mask><use class="abl" href="#ab12" mask="url(#am12)"/><mask id="ao12" maskUnits="userSpaceOnUse" x="-40" y="-40" width="240" height="240"><polyline class="abk" points="42.2,53.3 42.7,50.8"/><use href="#ab12" fill="#000"/></mask><use class="abl" href="#ab12" mask="url(#ao12)"/><g fill="#decee5"><path d="M118.062813,60.473077l-3.115135,32.334637c-.761063,7.875092-5.157845,14.583488-11.428368,18.521042-1.312294.820808-2.357594,1.960281-3.077774,3.279739-.720501,1.31913-1.11269,2.82177-1.11269,4.371811,0,5.362045-1.136829,13.464026-4.640965,16.977874-3.503819,3.513527-9.374939,2.43892-14.721844,2.43892V33.459493h13.633617c14.506142,0,25.856575,12.535136,24.463158,27.013584Z" id="ab13"/></g><mask id="am13" maskUnits="userSpaceOnUse" x="-40" y="-40" width="240" height="240"><use href="#ab13" fill="#fff"/><polyline class="abc" points="79.8,138.0 79.8,132.3"/><polyline class="abc" points="79.8,91.3 79.8,88.0"/><polyline class="abc" points="79.8,63.0 79.8,43.7"/><polyline class="abc" points="116.5,49.7 117.8,55.7"/><polyline class="abc" points="117.8,56.0 118.2,58.0"/><polyline class="abc" points="118.0,58.2 114.2,95.3"/><polyline class="abc" points="114.2,95.7 112.8,100.3"/><polyline class="abc" points="112.7,100.5 110.8,104.0 107.8,107.3"/><polyline class="abc" points="107.8,107.7 105.5,109.7"/></mask><use class="abl" href="#ab13" mask="url(#am13)"/><mask id="ao13" maskUnits="userSpaceOnUse" x="-40" y="-40" width="240" height="240"><polyline class="abk" points="116.5,49.7 117.8,55.7"/><use href="#ab13" fill="#000"/></mask><use class="abl" href="#ab13" mask="url(#ao13)"/><path class="cls-3" d="M112.747492,65.36987c.846651,3.168292-1.003782,6.42113-4.143517,7.307599-.02555.011529-.052057.018895-.078884.025941l-4.012575,1.078301c-1.590786.427542-3.20776.169415-4.531871-.597278-1.328582-.765411-2.358553-2.035867-2.78619-3.635545-.794275-2.972295.785971-6.023693,3.574398-7.12121.210465-.085188.429234-.158206.651516-.218094l4.012575-1.078302c1.595257-.428502,3.209037-.164932,4.532829.601761,1.324111.766693,2.354081,2.037148,2.781719,3.636826Z"/><path class="cls-1" d="M62.980956,69.548919c-.846652,3.168292-4.071019,5.057482-7.232151,4.251077-.027784-.002562-.054612-.009928-.08112-.016973l-4.012574-1.078301c-1.590786-.427542-2.86252-1.461648-3.626775-2.789429-.769045-1.329062-1.027416-2.945714-.600098-4.545392.794275-2.972295,3.684261-4.822413,6.646106-4.375336.224837.031705.450632.078142.672914.13771l4.012575,1.078302c1.595257.428502,2.861242,1.466132,3.625816,2.793912.764254,1.327781,1.022944,2.944753.595306,4.544431Z"/><path class="cls-2" d="M84.947897,88.071584h-4.981545v-24.692369h4.981545c4.015129,0,7.269836,3.263728,7.269836,7.289985v10.112081c0,4.026257-3.254707,7.290304-7.269836,7.290304Z"/><g fill="#decee5"><path d="M74.984806,88.071584h4.981545v-24.692369h-4.981545c-4.015129,0-7.269836,3.263728-7.269836,7.289985v10.112081c0,4.026257,3.254707,7.290304,7.269836,7.290304Z" id="ab17"/></g><mask id="am17" maskUnits="userSpaceOnUse" x="-40" y="-40" width="240" height="240"><use href="#ab17" fill="#fff"/><polyline class="abc" points="79.7,87.8 73.3,87.8 69.2,85.3"/><polyline class="abc" points="69.2,85.0 67.8,82.0"/><polyline class="abc" points="67.7,81.8 67.5,69.3 68.5,66.7 71.0,64.2 73.7,63.2 79.7,63.2"/></mask><use class="abl" href="#ab17" mask="url(#am17)"/><path class="cls-2" d="M79.966377,107.542408c2.858368,0,5.175403-7.68454,5.175403-10.55083s-2.317035-5.189747-5.175403-5.189747v15.740577Z"/><g fill="#decee5"><path d="M79.966377,91.801832c-2.858368,0-5.175403,2.323457-5.175403,5.189747s2.317035,10.55083,5.175403,10.55083v-15.740577Z" id="ab19"/></g><mask id="am19" maskUnits="userSpaceOnUse" x="-40" y="-40" width="240" height="240"><use href="#ab19" fill="#fff"/><polyline class="abc" points="74.8,97.7 74.5,96.7 75.5,94.0 78.0,91.8 79.7,91.5"/></mask><use class="abl" href="#ab19" mask="url(#am19)"/><path class="cls-2" d="M103.308868,79.155263h0c-3.00592,0-5.442719,2.443552-5.442719,5.457801v12.351628c0,3.01425,2.436798,5.457802,5.442719,5.457802h0c3.005917,0,5.442715-2.443552,5.442715-5.457802v-12.351628c0-3.014248-2.436798-5.457801-5.442715-5.457801Z"/><path class="cls-8" d="M56.623888,79.155263h0c-3.005918,0-5.442717,2.443552-5.442717,5.457801v12.351628c0,3.01425,2.436799,5.457802,5.442717,5.457802h0c3.005918,0,5.442717-2.443552,5.442717-5.457802v-12.351628c-.000319-3.014248-2.436799-5.457801-5.442717-5.457801Z"/><path class="cls-2" d="M84.959118,110.989655h0c0-.729543.28903-1.429302.803537-1.945234l4.10615-4.11753c1.534576-1.53883,4.159485-.766052,4.620655,1.360767l.892962,4.11753c.371748,1.714651-.930647,3.335465-2.680798,3.335465h-4.999111c-1.515413,0-2.743395-1.231704-2.743395-2.750998Z"/><path class="cls-8" d="M74.973672,110.989655h0c0-.729543-.289031-1.429302-.803537-1.945234l-4.106149-4.11753c-1.534577-1.53883-4.159485-.766052-4.620656,1.360767l-.892961,4.11753c-.371748,1.714651.930646,3.335465,2.680798,3.335465h4.999111c1.515414,0,2.743395-1.231704,2.743395-2.750998Z"/><path class="cls-3" d="M98.336903,46.825673h-2.93853c-2.802479,0-5.074482,2.2783-5.074482,5.088546v.520005c0,2.810246,2.272003,5.088546,5.074482,5.088546h2.93853c2.802479,0,5.074482-2.2783,5.074482-5.088546v-.520005c0-2.810246-2.271683-5.088546-5.074482-5.088546Z"/><path class="cls-1" d="M64.534382,46.825673h-2.93853c-2.802479,0-5.074482,2.2783-5.074482,5.088546v.520005c0,2.810246,2.272003,5.088546,5.074482,5.088546h2.93853c2.802479,0,5.074482-2.2783,5.074482-5.088546v-.520005c0-2.810246-2.271683-5.088546-5.074482-5.088546Z"/><g fill="#9175a7"><path d="M91.814636,93.066275c-.693385-.478447-1.649648-.31263-2.231737.296359l-9.616638,10.061042-9.615859-10.060735c-.582202-.609137-1.538625-.774882-2.232213-.296403-.884441.610141-.982535,1.834595-.271557,2.578329l9.260129,9.688493c.746369.780895,1.779649,1.222552,2.859864,1.222396h.000003c1.079786-.000156,2.112567-.441761,2.858658-1.222329l9.261093-9.689048c.71036-.743113.612423-1.968015-.271742-2.578104Z" id="ab26"/></g><mask id="am26" maskUnits="userSpaceOnUse" x="-40" y="-40" width="240" height="240"><use href="#ab26" fill="#fff"/><polyline class="abc" points="77.7,105.8 67.2,94.7 67.5,93.3 69.0,92.5 74.7,97.8"/></mask><use class="abl" href="#ab26" mask="url(#am26)"/><g fill="#f4e6f4"><path d="M125.223072,36.841062c-1.659447-3.12858-5.412376-5.090788-9.084503-4.45636,2.988358-10.194706-6.888824-19.797899-17.066216-16.255549v.003523c-.554741.189912-1.092567.417294-1.609947.681826-6.723392-15.222083-28.273891-15.214717-34.991856,0-10.398712-5.191669-21.850389,4.549234-18.676164,15.570521-5.285266-.912409-10.244456,3.412645-10.163335,8.685658,0,4.859886,3.929857,8.800953,8.773115,8.800953,4.920546.008327,8.916192-4.092869,8.769921-9.028332,4.919586,2.322174,11.493515.897675,15.006592-3.062607,7.174984,7.803032,20.398849,7.800793,27.571278,0,3.512123,3.959961,10.087967,5.38446,15.006592,3.062607-.14595,4.935463,3.84938,9.036339,8.76992,9.028332,6.5784.094795,10.925041-7.330658,7.694603-13.030571Z" id="ab27"/></g><mask id="ao27" maskUnits="userSpaceOnUse" x="-40" y="-40" width="240" height="240"><polyline class="abk" points="117.7,49.8 112.3,48.2 109.8,45.7 108.3,40.8 104.3,41.8 100.3,41.5 97.3,40.5 94.0,37.8 91.5,39.3"/><polyline class="abk" points="91.3,39.5 87.0,42.2 81.2,43.3"/><polyline class="abk" points="81.0,43.5 72.7,42.2 69.3,40.5 66.0,37.5 64.0,39.5 59.3,41.5 55.0,41.8 51.3,40.8 50.7,43.5"/><polyline class="abk" points="50.5,43.7 49.2,46.0"/><polyline class="abk" points="49.2,46.3 47.7,47.8"/><polyline class="abk" points="47.3,47.8 43.3,49.5"/><polyline class="abk" points="43.0,49.5 40.0,49.5 38.0,48.5"/><polyline class="abk" points="37.7,48.5 35.5,46.7 33.5,42.7 33.5,39.0 35.0,35.8"/><polyline class="abk" points="126.2,40.3 125.5,44.3 122.3,48.2"/><polyline class="abk" points="122.0,48.2 117.7,49.8"/><use href="#ab27" fill="#000"/></mask><use class="abl" href="#ab27" mask="url(#ao27)"/><g fill="#fff"><path d="M117.528469,32.272613c-.473625,0-.936714.037149-1.390221.111769,2.988358-10.194706-6.888824-19.798219-17.066216-16.255548v.003523c-.554741.189911-1.092567.417293-1.609943.681825-6.723392-15.222083-28.273895-15.214717-34.991858,0-10.399033-5.191669-21.850071,4.549555-18.676165,15.570521-3.672444-.634428-7.424412,1.32778-9.084501,4.45636,4.516861,7.989105,16.55586,4.814087,16.464201-4.45636,4.951525,2.288227,11.355228.973898,15.006596-3.062607,7.29858,7.823851,20.274612,7.822248,27.571278,0,3.650406,4.036184,10.056347,5.350834,15.006596,3.062607-.090385,9.276531,11.953087,12.440979,16.464516,4.45636-1.491463-2.723455-4.379852-4.568449-7.694283-4.568449Z" id="ab28"/></g><mask id="am28" maskUnits="userSpaceOnUse" x="-40" y="-40" width="240" height="240"><use href="#ab28" fill="#fff"/><polyline class="abc" points="119.0,41.2 115.7,41.2 112.0,39.5 109.2,36.0 108.3,32.2 106.0,33.2 100.7,33.2 96.3,31.5 93.7,29.2 92.8,29.7"/><polyline class="abc" points="92.7,29.8 88.8,32.7"/><polyline class="abc" points="88.7,32.8 83.7,34.5"/><polyline class="abc" points="83.5,34.7 79.7,35.2 75.0,34.5 69.0,31.8 66.0,29.2 62.0,32.2 59.0,33.2 53.7,33.2 51.3,32.2 49.2,38.0 44.0,41.2 40.7,41.2 37.3,39.8 34.5,36.7 35.2,35.7"/><polyline class="abc" points="35.3,35.5 38.0,33.2 40.0,32.5"/><polyline class="abc" points="123.5,34.7 125.2,36.7"/><polyline class="abc" points="125.0,36.8 122.7,39.5 119.0,41.2"/></mask><use class="abl" href="#ab28" mask="url(#am28)"/><mask id="ao28" maskUnits="userSpaceOnUse" x="-40" y="-40" width="240" height="240"><polyline class="abk" points="35.3,35.5 38.0,33.2 40.0,32.5"/><polyline class="abk" points="123.5,34.7 125.2,36.7"/><use href="#ab28" fill="#000"/></mask><use class="abl" href="#ab28" mask="url(#ao28)"/><path class="cls-11" d="M97.194455,69.548889s6.354386-8.530813,15.553037-4.179019"/><path class="cls-11" d="M62.981296,69.548889s-6.354386-8.530813-15.553037-4.179019"/><g fill="#dd5273"><path d="M86.214308,132.445379h-13.620605c-2.29541,0-4.15625-1.86084-4.15625-4.15625v-14.869629c1.066895.297852,2.981934.676758,5.302734.265625,3.28125-.581055,5.400391-2.39209,6.226074-3.182129.254395.458496,1.585449,2.747559,4.486328,3.605957,3.035645.898438,5.495605-.44873,5.918457-.689453v14.869629c0,2.29541-1.86084,4.15625-4.156738,4.15625Z" id="ab31"/></g><mask id="am31" maskUnits="userSpaceOnUse" x="-40" y="-40" width="240" height="240"><use href="#ab31" fill="#fff"/></mask><use class="abl" href="#ab31" mask="url(#am31)"/><path class="cls-10" d="M79.892055,108.929842s-4.534205,9.077128-15.989039,3.906543"/><g fill="#f4829b"><rect x="70.797129" y="119.359277" width="17.089445" height="9.333568" rx="2.346435" ry="2.346435" id="ab33"/></g><mask id="ao33" maskUnits="userSpaceOnUse" x="-40" y="-40" width="240" height="240"><polyline class="abk" points="86.0,128.5 71.7,128.2 70.5,126.3 70.5,121.3 71.2,120.0 72.3,119.2 86.7,119.5 87.8,121.3 87.8,126.3 86.0,128.5"/><use href="#ab33" fill="#000"/></mask><use class="abl" href="#ab33" mask="url(#ao33)"/><rect class="cls-7" x="78.049201" y="120.817647" width="9.009755" height="3.897825" rx="1.948911" ry="1.948911"/><path class="cls-10" d="M79.892055,105.478246v3.451597s4.534205,9.077128,15.989039,3.906543"/></g></g></g></g></svg>