<?xml version="1.0" encoding="UTF-8"?><svg id="Layer_1" xmlns="http://www.w3.org/2000/svg" xmlns:xlink="http://www.w3.org/1999/xlink" viewBox="0 0 160 160"><defs><style>.cls-1{fill:#dadbd9;}.cls-2{fill:#a99bd4;}.cls-3{fill:#7cc8fb;}.cls-4{fill:#d8d8d8;}.cls-5{clip-path:url(#clippath-2);}.cls-6{fill:#934cf5;}.cls-7{fill:#fff;}.cls-8{fill:none;stroke:#27273d;stroke-linecap:round;stroke-linejoin:round;stroke-width:3.125px;}.cls-9{fill:#7d46d3;}.cls-10{fill:#c7bfe8;}.cls-11{clip-path:url(#clippath);}.cls-12{fill:#27273d;}</style><clipPath id="clippath"><path id="Oval-2" class="cls-1" d="M50.36256,88.859638c7.017467,0,12.706249-1.215789,12.706249,5.800228s-5.688782,12.703625-12.706249,12.703625-12.706249-5.687607-12.706249-12.703625,5.688782-5.800228,12.706249-5.800228Z"/></clipPath><clipPath id="clippath-2"><path class="cls-1" d="M119.440837,94.655839c0,1.530029-.269531,3-.769531,4.360107q0,.01001-.010254.02002c-1.779785,4.859863-6.449707,8.329834-11.930176,8.329834-5.109863,0-9.509766-3.01001-11.529785-7.359863-.010254-.02002-.010254-.030029-.010254-.030029-.75-1.620117-1.169922-3.419922-1.169922-5.320068,0-7.01001,5.69043-5.796555,12.709961-5.796555,7.02002,0,12.709961-1.213455,12.709961,5.796555Z"/></clipPath></defs><g id="Avatars"><g id="Artboard"><g id="Robots"><g id="Robot-Avatars_33"><path id="Path" class="cls-6" d="M18.662561,91.741711h6.465625v24.616783h-6.465625c-2.04851.000832-4.013402-.812187-5.46221-2.260109-1.448808-1.447922-2.262789-3.412079-2.262789-5.460167v-9.176228c0-2.048084.813981-4.012241,2.262789-5.460167,1.448808-1.447922,3.4137-2.260941,5.46221-2.260113h0Z"/><path id="Path-2" class="cls-6" d="M140.550018,116.358391h-6.465637v-24.616779h6.465637c4.264671,0,7.72187,3.456482,7.72187,7.720276v9.176228c0,4.26379-3.457199,7.720276-7.72187,7.720276h0Z"/><rect id="Rectangle" class="cls-9" x="132.959435" y="91.741715" width="4.724998" height="24.654278"/><rect id="Rectangle-2" class="cls-9" x="21.528186" y="91.741715" width="4.724999" height="24.654278"/><path id="Path-3" class="cls-7" d="M79.586343,44.167187h0c30.08744,0,54.478127,24.385643,54.478127,54.466858v25.963379H25.108221v-25.963379c0-30.081215,24.390689-54.466858,54.478122-54.466858Z"/><path id="Path-4" class="cls-4" d="M134.168808,113.790287v10.804016H25.206306v-25.957134c-.008615-19.779606,10.712937-38.007978,28.006257-47.61515-9.226856,10.036443-14.339447,23.17608-14.321877,36.808013h0c0,14.337452,11.625206,25.960255,25.965626,25.960255h69.312496Z"/><path id="Path-5" class="cls-2" d="M27.240686,116.358494h104.731253c8.111679,0,14.6875,6.574463,14.6875,14.684464H12.546936c0-3.895645,1.548286-7.631638,4.304079-10.385689,2.755792-2.754051,6.493222-4.30043,10.389672-4.298775Z"/><polygon id="Path-6" class="cls-7" points="148.000061 130.996121 148.000061 160.996121 11.000061 160.996121 11.000061 130.996121 148.000061 130.996121"/><path id="Oval" class="cls-1" d="M50.36256,88.859638c7.017467,0,12.706249-1.215789,12.706249,5.800228s-5.688782,12.703625-12.706249,12.703625-12.706249-5.687607-12.706249-12.703625,5.688782-5.800228,12.706249-5.800228Z"/><g class="cls-11"><circle id="Oval-3" class="cls-12" cx="50.36256" cy="94.659866" r="9.612499"/><circle id="Oval-4" class="cls-7" cx="53.296936" cy="91.110603" r="2.931252"/><path class="cls-3" d="M38.392811,98.905839s.010254.040039.029785.110107q0,.01001.010254.02002c1.779785,4.859863,6.449707,8.329834,11.930176,8.329834,5.109863,0,9.509766-3.01001,11.529785-7.359863.010254-.02002.010254-.030029.010254-.030029,0,0-3.800293-1.899902-7.75,0-2.550293,1.22998-4.220215,2.699951-7.400391,1.069824-3.819824-1.939941-5.009766-4-8.359863-2.139893Z"/></g><path class="cls-1" d="M119.440837,94.655839c0,1.530029-.269531,3-.769531,4.360107q0,.01001-.010254.02002c-1.779785,4.859863-6.449707,8.329834-11.930176,8.329834-5.109863,0-9.509766-3.01001-11.529785-7.359863-.010254-.02002-.010254-.030029-.010254-.030029-.75-1.620117-1.169922-3.419922-1.169922-5.320068,0-7.01001,5.69043-5.796555,12.709961-5.796555,7.02002,0,12.709961-1.213455,12.709961,5.796555Z"/><g class="cls-5"><circle id="Oval-5" class="cls-12" cx="106.731308" cy="94.659866" r="9.612503"/><circle id="Oval-6" class="cls-7" cx="109.66256" cy="91.110603" r="2.931252"/><path class="cls-3" d="M118.701091,98.905839s-.010254.040039-.029785.110107q0,.01001-.010254.02002c-1.779785,4.859863-6.449707,8.329834-11.930176,8.329834-5.109863,0-9.509766-3.01001-11.529785-7.359863-.010254-.02002-.010254-.030029-.010254-.030029,0,0,3.800293-1.899902,7.75,0,2.550293,1.22998,4.220215,2.699951,7.400391,1.069824,3.819824-1.939941,5.009766-4,8.359863-2.139893Z"/></g><path id="Rectangle-3" class="cls-6" d="M60.723168,91.686169l-16.251957-2.567881c-2.442945-.385995-4.11042-2.679299-3.724427-5.122238l.000115-.000727c.386482-2.443395,2.680349-4.111001,5.123806-3.724927l16.251957,2.567881c2.442937.385996,4.11042,2.679299,3.724427,5.122238l-.000115.000729c-.386482,2.443395-2.680349,4.111001-5.123806,3.724925Z"/><path id="Rectangle-4" class="cls-6" d="M91.188093,87.961244l-.000115-.000729c-.385993-2.44294,1.28149-4.736242,3.724427-5.122238l16.251957-2.567881c2.443458-.386075,4.737324,1.281532,5.123806,3.724927l.000115.000727c.385993,2.44294-1.281482,4.736243-3.724427,5.122238l-16.251957,2.567881c-2.443457.386077-4.737324-1.28153-5.123806-3.724925Z"/><ellipse id="Oval-7" class="cls-10" cx="131.212563" cy="122.957134" rx="4.659378" ry="2.118309"/><ellipse id="Oval-8" class="cls-10" cx="119.950058" cy="122.957134" rx="3.606247" ry="1.640289"/><path class="cls-8" d="M68.103434,108.447098c1.862305-.967285,5.803711-2.697021,11.057129-2.625244,4.897461.066895,8.577148,1.667236,10.420898,2.625244"/></g></g></g></g></svg>